<svg xmlns="http://www.w3.org/2000/svg" width="532" height="276" viewBox="0 0 532 276" role="img" aria-label="dictate"><rect x="6.0" y="6.0" width="520" height="264" rx="18" fill="#EADFCB"/><rect x="236.0" y="183.0" width="5" height="6" rx="2.5" fill="#1F1D1A55"/><rect x="247.0" y="181.0" width="5" height="10" rx="2.5" fill="#1F1D1A55"/><rect x="258.0" y="177.0" width="5" height="18" rx="2.5" fill="#1F1D1A55"/><rect x="269.0" y="171.0" width="5" height="30" rx="2.5" fill="#1F1D1A55"/><rect x="280.0" y="175.0" width="5" height="22" rx="2.5" fill="#1F1D1A55"/><rect x="291.0" y="166.0" width="5" height="40" rx="2.5" fill="#1F1D1A55"/><rect x="302.0" y="157.0" width="5" height="58" rx="2.5" fill="#1F1D1A"/><rect x="313.0" y="169.0" width="5" height="34" rx="2.5" fill="#1F1D1A"/><rect x="324.0" y="162.0" width="5" height="48" rx="2.5" fill="#1F1D1A"/><rect x="335.0" y="151.0" width="5" height="70" rx="2.5" fill="#1F1D1A"/><rect x="346.0" y="164.0" width="5" height="44" rx="2.5" fill="#1F1D1A"/><rect x="357.0" y="173.0" width="5" height="26" rx="2.5" fill="#1F1D1A"/><rect x="368.0" y="160.0" width="5" height="52" rx="2.5" fill="#1F1D1A"/><rect x="379.0" y="168.0" width="5" height="36" rx="2.5" fill="#1F1D1A55"/><rect x="390.0" y="176.0" width="5" height="20" rx="2.5" fill="#1F1D1A55"/><rect x="401.0" y="172.0" width="5" height="28" rx="2.5" fill="#1F1D1A55"/><rect x="412.0" y="179.0" width="5" height="14" rx="2.5" fill="#1F1D1A55"/><rect x="423.0" y="182.0" width="5" height="8" rx="2.5" fill="#1F1D1A55"/><rect x="434.0" y="180.0" width="5" height="12" rx="2.5" fill="#1F1D1A55"/><rect x="445.0" y="183.0" width="5" height="6" rx="2.5" fill="#1F1D1A55"/><text x="30.0" y="58.0" font-family="-apple-system, BlinkMacSystemFont, 'Segoe UI', 'Helvetica Neue', Helvetica, Arial, sans-serif" font-size="40" font-weight="700" fill="#1F1D1A">dictate</text><text x="30.0" y="92.0" font-family="-apple-system, BlinkMacSystemFont, 'Segoe UI', 'Helvetica Neue', Helvetica, Arial, sans-serif" font-size="20" fill="#1F1D1A" opacity="0.8">Hold a key, speak, release.</text><text x="30.0" y="119.0" font-family="-apple-system, BlinkMacSystemFont, 'Segoe UI', 'Helvetica Neue', Helvetica, Arial, sans-serif" font-size="20" fill="#1F1D1A" opacity="0.8">On-device dictation for macOS.</text><text x="30.0" y="248.0" font-family="'JetBrains Mono', ui-monospace, SFMono-Regular, Menlo, Consolas, monospace" font-size="15" letter-spacing="0.8" fill="#1F1D1A" opacity="0.55">SWIFT · MACOS</text></svg>